<svg width="96" height="96" xmlns="http://www.w3.org/2000/svg" xmlns:xlink="http://www.w3.org/1999/xlink" overflow="hidden"><defs><clipPath id="clip0"><rect x="592" y="312" width="96" height="96"/></clipPath></defs><g clip-path="url(#clip0)" transform="translate(-592 -312)"><path d="M645 319C645 320.657 643.657 322 642 322 640.343 322 639 320.657 639 319 639 317.343 640.343 316 642 316 643.657 316 645 317.343 645 319Z" fill="#00FF00"/><path d="M650 328C650 329.657 648.657 331 647 331 645.343 331 644 329.657 644 328 644 326.343 645.343 325 647 325 648.657 325 650 326.343 650 328Z" fill="#00FF00"/><path d="M639 326C639 327.657 637.657 329 636 329 634.343 329 633 327.657 633 326 633 324.343 634.343 323 636 323 637.657 323 639 324.343 639 326Z" fill="#00FF00"/><path d="M642 337C642 339.209 640.209 341 638 341 635.791 341 634 339.209 634 337 634 334.791 635.791 333 638 333 640.209 333 642 334.791 642 337Z" fill="#00FF00"/><path d="M659.5 395.6 648 369.6 648 352C648 348.4 650.9 346.9 651 346.8 652 346.3 652.4 345.1 651.9 344.1 651.5 343.4 650.8 343 650 343L650 343 630 343 630 343C629.2 343 628.5 343.4 628.1 344.1 627.6 345.1 628 346.3 629 346.8 629 346.8 632 348.4 632 352L632 369.6 620.5 395.6C619.7 397.5 619.9 399.6 621 401.3 622.1 403 624 404 626 404L654 404C656 404 657.9 403 659 401.3 660.1 399.6 660.3 397.5 659.5 395.6ZM644 352 644 356 636 356 636 352C636 349.9 635.4 348.3 634.7 347L645.4 347C644.6 348.3 644 349.9 644 352Z" fill="#00FF00"/></g></svg>