<?xml version="1.0" standalone="no"?>
<!DOCTYPE svg PUBLIC "-//W3C//DTD SVG 20010904//EN"
 "http://www.w3.org/TR/2001/REC-SVG-20010904/DTD/svg10.dtd">
<svg version="1.0" xmlns="http://www.w3.org/2000/svg"
 width="2475.000000pt" height="2475.000000pt" viewBox="0 0 2475.000000 2475.000000"
 preserveAspectRatio="xMidYMid meet">
<metadata>
Created by potrace 1.14, written by Peter Selinger 2001-2017
</metadata>
<g transform="translate(0.000000,2475.000000) scale(0.100000,-0.100000)"
fill="#000000" stroke="none">
<path d="M12737 22439 c-268 -35 -491 -227 -573 -494 -14 -45 -18 -92 -18
-190 0 -114 4 -140 27 -211 49 -149 166 -294 302 -376 341 -206 797 -70 970
287 49 101 68 184 68 300 1 125 -13 185 -70 305 -39 80 -59 108 -132 181 -69
69 -103 94 -171 127 -134 66 -265 89 -403 71z"/>
<path d="M11292 20825 c-240 -54 -450 -266 -508 -510 -24 -105 -15 -286 19
-383 60 -170 183 -309 339 -387 107 -52 200 -75 313 -75 381 0 685 304 685
685 0 296 -174 544 -455 648 -70 26 -96 30 -205 33 -84 3 -146 -1 -188 -11z"/>
<path d="M13888 20380 c-155 -19 -280 -81 -399 -200 -137 -136 -199 -283 -200
-475 -2 -278 138 -504 386 -625 256 -125 561 -77 769 119 153 146 225 326 213
535 -3 56 -13 126 -22 156 -100 325 -411 529 -747 490z"/>
<path d="M11823 18549 c-251 -22 -494 -158 -643 -359 -245 -331 -244 -788 4
-1108 240 -311 649 -436 1021 -311 388 130 644 504 622 909 -14 247 -111 457
-290 626 -192 181 -442 266 -714 243z"/>
<path d="M10014 16260 c-150 -22 -279 -102 -353 -218 -78 -124 -82 -312 -9
-456 31 -60 115 -143 188 -186 308 -180 560 -500 647 -825 49 -184 46 -53 50
-2293 l3 -2093 -1325 -2996 c-729 -1647 -1337 -3030 -1351 -3071 -48 -149 -67
-266 -67 -427 -1 -263 59 -493 186 -710 202 -348 533 -580 942 -662 85 -17
265 -18 3340 -21 2209 -2 3295 0 3391 7 446 34 826 251 1059 606 156 238 228
479 228 765 0 173 -19 289 -72 445 -21 60 -630 1448 -1354 3084 l-1317 2974 0
2029 c0 1352 4 2061 11 2126 48 446 269 791 679 1057 114 74 171 134 213 223
30 64 32 73 32 187 0 114 -2 123 -32 187 -55 117 -158 208 -286 252 l-62 21
-2345 1 c-1290 1 -2368 -2 -2396 -6z m3507 -1062 c-86 -169 -138 -310 -176
-468 -51 -216 -56 -296 -62 -887 l-5 -553 -908 0 -908 0 -5 553 c-5 565 -10
639 -52 840 -43 207 -125 429 -243 660 -2 4 545 7 1216 7 l1220 0 -77 -152z"/>
</g>
</svg>
