<svg width="1074" height="1028" xmlns="http://www.w3.org/2000/svg" xmlns:xlink="http://www.w3.org/1999/xlink" overflow="hidden"><defs><clipPath id="clip0"><rect x="2209" y="777" width="1074" height="1028"/></clipPath><clipPath id="clip1"><rect x="2208" y="1185" width="1076" height="621"/></clipPath><clipPath id="clip2"><rect x="2208" y="1185" width="1076" height="621"/></clipPath></defs><g clip-path="url(#clip0)" transform="translate(-2209 -777)"><g clip-path="url(#clip1)"><g clip-path="url(#clip2)"><path d="M7210.19 3565.97C7210.19 3584.49 7195.17 3599.5 7176.65 3599.5 7158.13 3599.5 7143.11 3584.49 7143.11 3565.97 7143.11 3547.44 7158.13 3532.43 7176.65 3532.43 7195.17 3532.43 7210.19 3547.44 7210.19 3565.97Z" fill="#00FF00" transform="matrix(1.0008 0 0 1 -4414 -2755.86)"/><path d="M7266.08 3666.57C7266.08 3685.1 7251.06 3700.11 7232.54 3700.11 7214.02 3700.11 7199.01 3685.1 7199.01 3666.57 7199.01 3648.05 7214.02 3633.04 7232.54 3633.04 7251.06 3633.04 7266.08 3648.05 7266.08 3666.57Z" fill="#00FF00" transform="matrix(1.0008 0 0 1 -4414 -2755.86)"/><path d="M7143.11 3644.22C7143.11 3662.74 7128.1 3677.75 7109.58 3677.75 7091.06 3677.75 7076.04 3662.74 7076.04 3644.22 7076.04 3625.69 7091.06 3610.68 7109.58 3610.68 7128.1 3610.68 7143.11 3625.69 7143.11 3644.22Z" fill="#00FF00" transform="matrix(1.0008 0 0 1 -4414 -2755.86)"/><path d="M7176.65 3767.18C7176.65 3791.88 7156.63 3811.9 7131.94 3811.9 7107.24 3811.9 7087.22 3791.88 7087.22 3767.18 7087.22 3742.49 7107.24 3722.47 7131.94 3722.47 7156.63 3722.47 7176.65 3742.49 7176.65 3767.18Z" fill="#00FF00" transform="matrix(1.0008 0 0 1 -4414 -2755.86)"/><path d="M7372.27 4422.25 7243.72 4131.6 7243.72 3934.86C7243.72 3894.62 7276.14 3877.85 7277.26 3876.73 7288.44 3871.14 7292.91 3857.73 7287.32 3846.55 7282.85 3838.72 7275.02 3834.25 7266.08 3834.25L7266.08 3834.25 7042.51 3834.25 7042.51 3834.25C7033.56 3834.25 7025.74 3838.72 7021.27 3846.55 7015.68 3857.73 7020.15 3871.14 7031.33 3876.73 7031.33 3876.73 7064.86 3894.62 7064.86 3934.86L7064.86 4131.6 6936.31 4422.25C6927.37 4443.49 6929.6 4466.96 6941.9 4485.96 6954.2 4504.97 6975.43 4516.15 6997.79 4516.15L7310.79 4516.15C7333.15 4516.15 7354.39 4504.97 7366.69 4485.96 7378.98 4466.96 7381.22 4443.49 7372.27 4422.25ZM7199.01 3934.86 7199.01 3979.57 7109.58 3979.57 7109.58 3934.86C7109.58 3911.39 7102.87 3893.5 7095.05 3878.97L7214.66 3878.97C7205.71 3893.5 7199.01 3911.39 7199.01 3934.86Z" fill="#00FF00" transform="matrix(1.0008 0 0 1 -4414 -2755.86)"/></g></g><path d="M3126.49 868.471 2718.5 777.671 2345.49 966.246 2425.87 983.643 2445.37 1139.28C2445.99 1144.23 2450.49 1147.74 2455.44 1147.12 2460.39 1146.5 2463.9 1142 2463.28 1137.04L2444.58 987.665 2510.39 1001.9 2526.51 1130.86C2533.08 1183.32 2645.13 1214.33 2771.21 1198.55 2897.26 1182.77 2998.2 1125.11 2991.64 1072.65L2975.48 943.694ZM2720.88 796.7 3072.64 874.969C3072.78 875.003 3072.78 875.072 3072.64 875.141L2750.75 1035.42 2399.33 959.44C2399.19 959.405 2399.19 959.336 2399.33 959.267ZM2973.72 1074.89C2978.3 1111.36 2889.83 1165.51 2768.94 1180.64 2648.05 1195.76 2549 1165.1 2544.42 1128.62L2529.09 1005.96 2753.16 1054.36 2958.36 952.185Z" fill="#FFFFFF" fill-rule="evenodd"/></g></svg>