<svg width="2522" height="2543" xmlns="http://www.w3.org/2000/svg" xmlns:xlink="http://www.w3.org/1999/xlink" overflow="hidden"><defs><clipPath id="clip0"><rect x="937" y="-67" width="2522" height="2543"/></clipPath><clipPath id="clip1"><rect x="962" y="-2" width="2476" height="2479"/></clipPath><clipPath id="clip2"><rect x="962" y="-2" width="2476" height="2479"/></clipPath><clipPath id="clip3"><rect x="962" y="-2" width="2476" height="2479"/></clipPath></defs><g clip-path="url(#clip0)" transform="translate(-937 67)"><g clip-path="url(#clip1)"><g clip-path="url(#clip2)"><g clip-path="url(#clip3)"><path d="M2199.77-0.77417 3437 1236.95 2199.77 2474.68 962.545 1236.95Z"/><path d="M2199.77 45.9326 2783.37 629.767 2199.77 1213.6 1616.18 629.767Z" fill="#FF6666"/><path d="M1592.83 653.12 2176.43 1236.95 1592.83 1820.79 1009.23 1236.95Z" fill="#6691FF"/><path d="M2806.72 653.12 3390.32 1236.95 2806.72 1820.79 2223.12 1236.95Z" fill="#FCFF66"/><path d="M2199.77 1260.31 2783.37 1844.14 2199.77 2427.98 1616.18 1844.14Z" fill="#FFFFFF"/></g></g></g><text font-family="Calibri,Calibri_MSFontService,sans-serif" font-weight="400" font-size="761" transform="matrix(1 0 0 1 1393.86 1488)">3<tspan font-size="761" x="611.287" y="-614">2</tspan><tspan font-size="761" x="1222.57" y="0">2</tspan></text></g></svg>